<svg xmlns="http://www.w3.org/2000/svg" viewBox="0 0 256 256" role="img" aria-labelledby="title desc">
  <title id="title">common2 offset-duotone</title>
  <desc id="desc">항목 추가 - 입체감 있는 듀오톤</desc>
  <style>.o{stroke:#30343B;stroke-width:10;stroke-linecap:round;stroke-linejoin:round}.p{fill:#80C84D}.s{fill:#CDEFAF}.t{fill:#F8FAFC}.paper{fill:#fff}</style>
  <rect x="18" y="18" width="220" height="220" rx="48" fill="#F8FAFC"/><path d="M39 190c34 38 126 54 181-1" fill="none" stroke="#CDEFAF" stroke-width="12" opacity=".65"/>
  <g transform="translate(8 9)" opacity=".14"><path class="paper o" d="M51 28h116l38 38v158H51z"/><path class="s o" d="M167 28v40h38"/><g class="o detail"><path d="M82 91h54M82 126h72M82 161h45"/><rect x="68" y="82" width="8" height="8"/><rect x="68" y="117" width="8" height="8"/><rect x="68" y="152" width="8" height="8"/></g><circle class="t o" cx="180" cy="183" r="40"/><path class="o" d="M180 162v42m-21-21h42"/></g>
  <g transform="translate(13 9) scale(.9)"><path class="paper o" d="M51 28h116l38 38v158H51z"/><path class="s o" d="M167 28v40h38"/><g class="o detail"><path d="M82 91h54M82 126h72M82 161h45"/><rect x="68" y="82" width="8" height="8"/><rect x="68" y="117" width="8" height="8"/><rect x="68" y="152" width="8" height="8"/></g><circle class="t o" cx="180" cy="183" r="40"/><path class="o" d="M180 162v42m-21-21h42"/></g>
</svg>
