<svg xmlns="http://www.w3.org/2000/svg" viewBox="0 0 256 256" role="img" aria-labelledby="title desc">
  <title id="title">exercise3_2 offset-duotone</title>
  <desc id="desc">운동 세트 - 입체감 있는 듀오톤</desc>
  <style>.o{stroke:#30343B;stroke-width:10;stroke-linecap:round;stroke-linejoin:round}.p{fill:#61C9EC}.s{fill:#E8E4FF}.t{fill:#FFED9B}.paper{fill:#fff}</style>
  <rect x="18" y="18" width="220" height="220" rx="48" fill="#FFED9B"/><path d="M39 190c34 38 126 54 181-1" fill="none" stroke="#E8E4FF" stroke-width="12" opacity=".65"/>
  <g transform="translate(8 9)" opacity=".14"><rect class="paper o" x="52" y="38" width="152" height="186" rx="16"/><rect class="p o" x="91" y="26" width="74" height="35" rx="12"/><g class="o detail"><path d="m78 108 10 10 17-22m-27 60 10 10 17-22m20-35h50m-50 48h50"/></g><path class="s o" d="M83 79h90"/><path class="o" d="M99 79v28m58-28v28"/></g>
  <g transform="translate(13 9) scale(.9)"><rect class="paper o" x="52" y="38" width="152" height="186" rx="16"/><rect class="p o" x="91" y="26" width="74" height="35" rx="12"/><g class="o detail"><path d="m78 108 10 10 17-22m-27 60 10 10 17-22m20-35h50m-50 48h50"/></g><path class="s o" d="M83 79h90"/><path class="o" d="M99 79v28m58-28v28"/></g>
</svg>
